<?xml version="1.0" standalone="no"?>
<!DOCTYPE svg PUBLIC "-//W3C//DTD SVG 20010904//EN"
 "http://www.w3.org/TR/2001/REC-SVG-20010904/DTD/svg10.dtd">
<svg version="1.0" xmlns="http://www.w3.org/2000/svg"
 width="7745.000000pt" height="1350.000000pt" viewBox="0 0 7745.000000 1350.000000"
 preserveAspectRatio="xMidYMid meet">
<metadata>
Created by potrace 1.16, written by Peter Selinger 2001-2019
</metadata>
<g transform="translate(0.000000,1350.000000) scale(0.100000,-0.100000)"
fill="currentColor" stroke="none">
<path d="M1140 12380 l0 -1120 -570 0 -570 0 0 -4515 0 -4515 175 0 175 0 0
-675 0 -675 1380 0 1380 0 0 2250 0 2250 1325 0 1325 0 0 -1575 0 -1575 185 0
185 0 0 -675 0 -675 1380 0 1380 0 0 4740 0 4740 -387 2 -388 3 -3 448 -2 447
-185 0 -185 0 0 675 0 675 -392 2 -393 3 -3 443 -2 442 -2905 0 -2905 0 0
-1120z m6450 -525 l0 -595 -75 0 -75 0 0 515 0 515 -245 0 -245 0 0 80 0 80
320 0 320 0 0 -595z m-300 -160 l0 -435 -167 2 -168 3 -3 420 c-1 231 0 426 3
432 3 10 47 13 170 13 l165 0 0 -435z m-1530 -900 l0 -435 -1550 0 -1550 0 0
-675 0 -675 -162 2 -163 3 -3 1108 -2 1107 1715 0 1715 0 0 -435z m0 -675 l0
-80 -1400 0 -1400 0 0 -515 0 -515 -75 0 -75 0 0 595 0 595 1475 0 1475 0 0
-80z m2980 -4500 l0 -4580 -1230 0 -1230 0 0 595 0 595 75 0 75 0 0 -515 0
-515 1080 0 1080 0 0 4420 0 4420 -240 0 -240 0 0 80 0 80 315 0 315 0 0
-4580z m-2980 3825 l0 -435 -1325 0 -1325 0 0 435 0 435 1325 0 1325 0 0 -435z
m2680 -3825 l0 -4260 -930 0 -930 0 0 435 0 435 765 0 765 0 0 1128 c0 620 0
2338 0 3818 0 1480 3 2694 7 2697 3 4 78 7 165 7 l158 0 0 -4260z m-2680 675
l0 -435 -1550 0 -1550 0 0 -2250 0 -2250 -930 0 -930 0 0 435 0 435 765 0 765
0 0 1128 c0 620 0 1632 0 2250 l0 1122 1715 0 1715 0 0 -435z m0 -675 l0 -80
-1400 0 -1400 0 0 -2250 0 -2250 -1230 0 -1230 0 0 595 0 595 75 0 75 0 0
-515 0 -515 1080 0 1080 0 0 2250 0 2250 1475 0 1475 0 0 -80z M10380 12380
l0 -1120 -575 0 -575 0 0 -3390 0 -3390 185 0 185 0 0 -675 0 -675 390 0 390
0 0 -450 0 -450 185 0 185 0 0 -675 0 -675 3695 0 3695 0 0 1365 0 1365 -392
2 -393 3 -3 448 -2 447 -2495 0 -2495 0 0 2685 0 2685 2890 0 2890 0 0 1365 0
1365 -392 2 -393 3 -3 443 -2 442 -3485 0 -3485 0 0 -1120z m7610 -1135 l0
-1205 -2890 0 -2890 0 0 -2765 0 -2765 -75 0 -75 0 0 2845 0 2845 2890 0 2890
0 0 1045 0 1045 -245 0 -245 0 0 80 0 80 320 0 320 0 0 -1205z m-300 0 l0
-885 -2890 0 -2890 0 0 -2925 0 -2925 -167 2 -168 3 -2 3358 -3 3357 2890 0
2890 0 0 443 c0 244 3 447 7 450 3 4 80 7 170 7 l163 0 0 -885z m-7790 -7280
l0 -515 240 0 240 0 0 -80 0 -80 -315 0 -315 0 0 595 0 595 75 0 75 0 0 -515z
m480 80 l0 -435 -165 0 -165 0 0 435 0 435 165 0 165 0 0 -435z m7610 -1800
l0 -1205 -3545 0 -3545 0 0 595 0 595 75 0 75 0 0 -515 0 -515 3395 0 3395 0
0 1045 0 1045 -245 0 -245 0 0 80 0 80 320 0 320 0 0 -1205z m-300 0 l0 -885
-3245 0 -3245 0 0 435 0 435 3075 0 3075 0 0 443 c0 244 3 447 7 450 3 4 80 7
170 7 l163 0 0 -885z M18480 8990 l0 -4510 185 0 185 0 0 -675 0 -675 390 0
390 0 0 -450 0 -450 185 0 185 0 0 -675 0 -675 3695 0 3695 0 0 1125 0 1125
575 0 575 0 0 4740 0 4740 -387 2 -388 3 -3 443 -2 442 -1175 0 -1175 0 0
-4495 0 -4495 -1900 0 -1900 0 0 4050 0 4050 -392 2 -393 3 -3 443 -2 442
-1170 0 -1170 0 0 -4510z m2980 -510 l0 -3970 -75 0 -75 0 0 3890 0 3890 -245
0 -245 0 0 80 0 80 320 0 320 0 0 -3970z m6930 -610 l0 -4580 -575 0 -575 0 0
-1125 0 -1125 -3545 0 -3545 0 0 595 0 595 75 0 75 0 0 -515 0 -515 3395 0
3395 0 0 1125 0 1125 575 0 575 0 0 4420 0 4420 -240 0 -240 0 0 80 0 80 315
0 315 0 0 -4580z m-7230 450 l0 -3810 -167 2 -168 3 -2 3795 c-2 2087 -1 3801
2 3808 3 9 47 12 170 12 l165 0 0 -3810z m6930 -450 l0 -4260 -575 0 -575 0 0
-1125 0 -1125 -3245 0 -3245 0 0 435 0 435 3075 0 3075 0 0 1125 0 1125 580 0
580 0 0 1128 c0 620 0 2338 0 3818 0 1480 3 2694 7 2697 3 4 78 7 165 7 l158
0 0 -4260z m-8940 -3905 l0 -515 240 0 240 0 0 -80 0 -80 -315 0 -315 0 0 595
0 595 75 0 75 0 0 -515z m480 80 l0 -435 -165 0 -165 0 0 435 0 435 165 0 165
0 0 -435z M28880 7865 l0 -5635 185 0 185 0 0 -675 0 -675 4270 0 4270 0 0
1365 0 1365 -392 2 -393 3 -3 448 -2 447 -2495 0 -2495 0 0 435 0 435 1735 0
1735 0 0 1365 0 1365 -392 2 -393 3 -3 448 -2 447 -1340 0 -1340 0 0 435 0
435 2890 0 2890 0 0 1365 0 1365 -392 2 -393 3 -3 443 -2 442 -4060 0 -4060 0
0 -5635z m8760 3380 l0 -1205 -2890 0 -2890 0 0 -515 0 -515 -75 0 -75 0 0
595 0 595 2890 0 2890 0 0 1045 0 1045 -245 0 -245 0 0 80 0 80 320 0 320 0 0
-1205z m-300 0 l0 -885 -2890 0 -2890 0 0 -675 0 -675 -167 2 -168 3 -3 1108
-2 1107 2890 0 2890 0 0 443 c0 244 3 447 7 450 3 4 80 7 170 7 l163 0 0 -885z
m-2010 -4500 l0 -1205 -1735 0 -1735 0 0 -515 0 -515 -75 0 -75 0 0 595 0 595
1735 0 1735 0 0 1045 0 1045 -245 0 -245 0 0 80 0 80 320 0 320 0 0 -1205z
m-300 0 l0 -885 -1735 0 -1735 0 0 -675 0 -675 -167 2 -168 3 -3 1108 -2 1107
1735 0 1735 0 0 443 c0 244 3 447 7 450 3 4 80 7 170 7 l163 0 0 -885z m2610
-4500 l0 -1205 -4120 0 -4120 0 0 595 0 595 75 0 75 0 0 -515 0 -515 3970 0
3970 0 0 1045 0 1045 -245 0 -245 0 0 80 0 80 320 0 320 0 0 -1205z m-300 0
l0 -885 -3820 0 -3820 0 0 435 0 435 3650 0 3650 0 0 443 c0 244 3 447 7 450
3 4 80 7 170 7 l163 0 0 -885z M38130 7865 l0 -5635 185 0 185 0 0 -675 0
-675 1380 0 1380 0 0 2250 0 2250 1325 0 1325 0 0 -1575 0 -1575 185 0 185 0
0 -675 0 -675 1380 0 1380 0 0 2490 0 2490 -392 2 -393 3 -3 448 -2 447 -185
0 -185 0 0 435 0 435 580 0 580 0 0 1365 0 1365 -392 2 -393 3 -3 448 -2 447
-185 0 -185 0 0 675 0 675 -387 2 -388 3 -3 443 -2 442 -3485 0 -3485 0 0
-5635z m7600 3990 l0 -595 -75 0 -75 0 0 515 0 515 -240 0 -240 0 0 80 0 80
315 0 315 0 0 -595z m-300 -160 l0 -435 -162 2 -163 3 -3 420 c-1 231 0 426 3
432 3 10 46 13 165 13 l160 0 0 -435z m-1520 -900 l0 -435 -1550 0 -1550 0 0
-675 0 -675 -167 2 -168 3 -3 1108 -2 1107 1720 0 1720 0 0 -435z m0 -675 l0
-80 -1400 0 -1400 0 0 -515 0 -515 -75 0 -75 0 0 595 0 595 1475 0 1475 0 0
-80z m2980 -1125 l0 -1205 -580 0 -580 0 0 -515 0 -515 -75 0 -75 0 0 595 0
595 580 0 580 0 0 1045 0 1045 -245 0 -245 0 0 80 0 80 320 0 320 0 0 -1205z
m-2980 450 l0 -435 -1325 0 -1325 0 0 435 0 435 1325 0 1325 0 0 -435z m2680
-450 l0 -885 -580 0 -580 0 0 -675 0 -675 -162 2 -163 3 -3 1108 -2 1107 575
0 575 0 0 443 c0 244 3 447 7 450 3 4 80 7 170 7 l163 0 0 -885z m-2680 -2700
l0 -435 -1550 0 -1550 0 0 -2250 0 -2250 -930 0 -930 0 0 435 0 435 760 0 760
0 0 1128 c0 620 0 1632 0 2250 l0 1122 1720 0 1720 0 0 -435z m0 -675 l0 -80
-1400 0 -1400 0 0 -2250 0 -2250 -1230 0 -1230 0 0 595 0 595 75 0 75 0 0
-515 0 -515 1080 0 1080 0 0 2250 0 2250 1475 0 1475 0 0 -80z m2980 -2250 l0
-2330 -1230 0 -1230 0 0 595 0 595 75 0 75 0 0 -515 0 -515 1080 0 1080 0 0
2170 0 2170 -245 0 -245 0 0 80 0 80 320 0 320 0 0 -2330z m-300 0 l0 -2010
-930 0 -930 0 0 435 0 435 760 0 760 0 0 1128 c1 620 0 1325 0 1567 0 243 2
444 6 448 4 4 81 7 171 7 l163 0 0 -2010z M47370 10115 l0 -3385 185 0 185 0
0 -675 0 -675 395 0 395 0 0 -450 0 -450 185 0 185 0 0 -675 0 -675 395 0 395
0 0 -450 0 -450 185 0 185 0 0 -675 0 -675 2535 0 2535 0 0 1125 0 1125 575 0
575 0 0 1125 0 1125 580 0 580 0 0 3615 0 3615 -392 2 -393 3 -3 443 -2 442
-1170 0 -1170 0 0 -3370 0 -3370 -580 0 -580 0 0 -1125 0 -1125 -745 0 -745 0
0 675 0 675 -387 2 -388 3 -3 448 -2 447 -185 0 -185 0 0 2925 0 2925 -392 2
-393 3 -3 443 -2 442 -1175 0 -1175 0 0 -3385z m2990 -510 l0 -2845 -75 0 -75
0 0 2765 0 2765 -245 0 -245 0 0 80 0 80 320 0 320 0 0 -2845z m6930 -610 l0
-3455 -580 0 -580 0 0 -1125 0 -1125 -575 0 -575 0 0 -1125 0 -1125 -2385 0
-2385 0 0 595 0 595 75 0 75 0 0 -515 0 -515 2235 0 2235 0 0 1125 0 1125 575
0 575 0 0 1125 0 1125 580 0 580 0 0 3295 0 3295 -245 0 -245 0 0 80 0 80 320
0 320 0 0 -3455z m-7230 450 l0 -2685 -167 2 -168 3 -2 2670 c-2 1469 -1 2676
2 2683 3 9 47 12 170 12 l165 0 0 -2685z m6930 -450 l0 -3135 -580 0 -580 0 0
-1125 0 -1125 -575 0 -575 0 0 -1125 0 -1125 -2085 0 -2085 0 0 435 0 435
1915 0 1915 0 0 1125 0 1125 580 0 580 0 0 1125 0 1125 575 0 575 0 0 1128 c0
620 0 1832 0 2693 0 861 3 1569 7 1572 3 4 80 7 170 7 l163 0 0 -3135z m-8950
-2780 l0 -515 245 0 245 0 0 -80 0 -80 -320 0 -320 0 0 595 0 595 75 0 75 0 0
-515z m490 80 l0 -435 -170 0 -170 0 0 435 0 435 170 0 170 0 0 -435z m2980
-1190 l0 -595 -75 0 -75 0 0 515 0 515 -240 0 -240 0 0 80 0 80 315 0 315 0 0
-595z m-300 -160 l0 -435 -162 2 -163 3 -3 420 c-1 231 0 426 3 432 3 10 46
13 165 13 l160 0 0 -435z m-2010 -980 l0 -515 245 0 245 0 0 -80 0 -80 -320 0
-320 0 0 595 0 595 75 0 75 0 0 -515z m490 80 l0 -435 -170 0 -170 0 0 435 0
435 170 0 170 0 0 -435z M58930 12380 l0 -1120 -575 0 -575 0 0 -3390 0 -3390
185 0 185 0 0 -675 0 -675 390 0 390 0 0 -450 0 -450 185 0 185 0 0 -675 0
-675 3695 0 3695 0 0 1125 0 1125 575 0 575 0 0 3615 0 3615 -387 2 -388 3 -3
448 -2 447 -185 0 -185 0 0 675 0 675 -392 2 -393 3 -3 443 -2 442 -3485 0
-3485 0 0 -1120z m7610 -525 l0 -595 -75 0 -75 0 0 515 0 515 -245 0 -245 0 0
80 0 80 320 0 320 0 0 -595z m-300 -160 l0 -435 -167 2 -168 3 -3 420 c-1 231
0 426 3 432 3 10 47 13 170 13 l165 0 0 -435z m-1530 -900 l0 -435 -2125 0
-2125 0 0 -2925 0 -2925 -167 2 -168 3 -2 3358 -3 3357 2295 0 2295 0 0 -435z
m0 -675 l0 -80 -1975 0 -1975 0 0 -2765 0 -2765 -75 0 -75 0 0 2845 0 2845
2050 0 2050 0 0 -80z m2980 -3375 l0 -3455 -575 0 -575 0 0 -1125 0 -1125
-3545 0 -3545 0 0 595 0 595 75 0 75 0 0 -515 0 -515 3395 0 3395 0 0 1125 0
1125 575 0 575 0 0 3295 0 3295 -240 0 -240 0 0 80 0 80 315 0 315 0 0 -3455z
m-2980 450 l0 -2685 -1900 0 -1900 0 0 2685 0 2685 1900 0 1900 0 0 -2685z
m2680 -450 l0 -3135 -575 0 -575 0 0 -1125 0 -1125 -3245 0 -3245 0 0 435 0
435 3075 0 3075 0 0 1125 0 1125 580 0 580 0 0 1128 c0 620 0 1832 0 2693 0
861 3 1569 7 1572 3 4 78 7 165 7 l158 0 0 -3135z m-8940 -2780 l0 -515 240 0
240 0 0 -80 0 -80 -315 0 -315 0 0 595 0 595 75 0 75 0 0 -515z m480 80 l0
-435 -165 0 -165 0 0 435 0 435 165 0 165 0 0 -435z M68180 12365 l0 -1135
185 0 185 0 0 -675 0 -675 1550 0 1550 0 0 -435 0 -435 -580 0 -580 0 0 -1125
0 -1125 -575 0 -575 0 0 -1125 0 -1125 -580 0 -580 0 0 -1140 0 -1140 185 0
185 0 0 -675 0 -675 4270 0 4270 0 0 1365 0 1365 -387 2 -388 3 -3 448 -2 447
-1345 0 -1345 0 0 435 0 435 580 0 580 0 0 1125 0 1125 580 0 580 0 0 1125 0
1125 575 0 575 0 0 1365 0 1365 -387 2 -388 3 -3 443 -2 442 -4065 0 -4065 0
0 -1135z m8760 -1120 l0 -1205 -575 0 -575 0 0 -1125 0 -1125 -580 0 -580 0 0
-1125 0 -1125 -580 0 -580 0 0 -515 0 -515 -75 0 -75 0 0 595 0 595 580 0 580
0 0 1125 0 1125 580 0 580 0 0 1125 0 1125 575 0 575 0 0 1045 0 1045 -240 0
-240 0 0 80 0 80 315 0 315 0 0 -1205z m-300 0 l0 -885 -575 0 -575 0 0 -1125
0 -1125 -580 0 -580 0 0 -1125 0 -1125 -580 0 -580 0 0 -675 0 -675 -162 2
-163 3 -3 1107 -2 1108 575 0 575 0 0 1125 0 1125 580 0 580 0 0 1125 0 1125
580 0 580 0 0 443 c0 244 3 447 7 450 3 4 78 7 165 7 l158 0 0 -885z m-7790
-530 l0 -515 1400 0 1400 0 0 -80 0 -80 -1475 0 -1475 0 0 595 0 595 75 0 75
0 0 -515z m2800 80 l0 -435 -1325 0 -1325 0 0 435 0 435 1325 0 1325 0 0 -435z
m5290 -8550 l0 -1205 -4120 0 -4120 0 0 595 0 595 75 0 75 0 0 -515 0 -515
3970 0 3970 0 0 1045 0 1045 -240 0 -240 0 0 80 0 80 315 0 315 0 0 -1205z
m-300 0 l0 -885 -3820 0 -3820 0 0 435 0 435 3655 0 3655 0 0 443 c0 244 3
447 7 450 3 4 78 7 165 7 l158 0 0 -885z"/>
</g>
</svg>
